<?xml version="1.0" encoding="UTF-8"?>
<svg width="993px" height="187px" viewBox="0 0 993 187" version="1.1" xmlns="http://www.w3.org/2000/svg" xmlns:xlink="http://www.w3.org/1999/xlink">
    <title>Group 8 Copy</title>
    <g id="Page-1" stroke="none" stroke-width="1" fill="none" fill-rule="evenodd">
        <g id="Group-9" transform="translate(-729.000000, 0.000000)" fill="#FFFFFF">
            <g id="Group-8-Copy" transform="translate(729.000000, 0.000000)">
                <g id="Group-6-Copy-7">
                    <path d="M167,0 C182.463973,-9.94611311e-15 195,12.536027 195,28 L195,159 C195,174.463973 182.463973,187 167,187 L28,187 C12.536027,187 -1.65892318e-15,174.463973 0,159 L0,28 C-5.44650418e-15,12.536027 12.536027,-4.2647416e-15 28,0 L167,0 Z M151,33 L50,33 C43.9248678,33 39,37.9248678 39,44 L39,76 C39,82.0751322 43.9248678,87 50,87 L107,87 L107,143 C107,149.075132 111.924868,154 118,154 L151,154 C157.075132,154 162,149.075132 162,143 L162,44 C162,37.9248678 157.075132,33 151,33 Z" id="Combined-Shape"></path>
                </g>
                <path d="M331.684155,165.787109 C339.428296,165.787109 347.008618,165.236084 354.425122,164.134033 C361.841626,163.031982 369.749585,161.11084 378.148999,158.370605 L378.148999,158.370605 L378.148999,90.6391602 L326.322827,90.6391602 L326.322827,113.692871 L351.074292,113.692871 L351.074292,140.946289 C345.117261,142.137695 339.249585,142.733398 333.471265,142.733398 C322.391187,142.733398 313.947095,138.995361 308.138989,131.519287 C302.330884,124.043213 299.426831,113.216309 299.426831,99.0385742 C299.426831,85.456543 303.030835,74.6445312 310.238843,66.6025391 C317.446851,58.5605469 327.037671,54.5395508 339.011304,54.5395508 C349.316968,54.5395508 359.235425,56.9223633 368.766675,61.6879883 L368.766675,61.6879883 L377.970288,39.527832 C365.520093,34.1665039 352.593335,31.4858398 339.190015,31.4858398 C317.804273,31.4858398 301.079907,37.3833008 289.016919,49.1782227 C276.953931,60.9731445 270.922437,77.4145508 270.922437,98.5024414 C270.922437,120.186035 276.119946,136.821045 286.514966,148.407471 C296.909986,159.993896 311.966382,165.787109 331.684155,165.787109 Z M417.642212,164 L417.642212,24.9628906 L390.388794,24.9628906 L390.388794,164 L417.642212,164 Z M471.611011,165.787109 C486.920581,165.787109 498.864429,161.200195 507.442554,152.026367 C516.020679,142.852539 520.309741,130.134277 520.309741,113.871582 C520.309741,103.387207 518.343921,94.2431641 514.41228,86.4394531 C510.48064,78.6357422 504.851245,72.6489258 497.524097,68.4790039 C490.196948,64.309082 481.737964,62.2241211 472.147144,62.2241211 C456.718433,62.2241211 444.7448,66.7514648 436.226245,75.8061523 C427.70769,84.8608398 423.448413,97.5493164 423.448413,113.871582 C423.448413,124.355957 425.414233,133.529785 429.345874,141.393066 C433.277515,149.256348 438.906909,155.287842 446.234058,159.487549 C453.561206,163.687256 462.02019,165.787109 471.611011,165.787109 Z M471.968433,143.89502 C464.641284,143.89502 459.354419,141.363281 456.107837,136.299805 C452.861255,131.236328 451.237964,123.760254 451.237964,113.871582 C451.237964,103.92334 452.846362,96.4919434 456.063159,91.5773926 C459.279956,86.6628418 464.522144,84.2055664 471.789722,84.2055664 C479.11687,84.2055664 484.388843,86.6777344 487.60564,91.6220703 C490.822437,96.5664062 492.430835,103.98291 492.430835,113.871582 C492.430835,123.819824 490.837329,131.310791 487.650317,136.344482 C484.463306,141.378174 479.236011,143.89502 471.968433,143.89502 Z M571.32981,164 L589.558325,84.9204102 L590.183813,84.9204102 L600.549048,129.062012 L608.233618,164 L637.899634,164 L666.672095,64.1005859 L639.95481,64.1005859 L627.981177,108.331543 C627.385474,110.952637 626.402563,116.001221 625.032446,123.477295 C623.662329,130.953369 622.709204,136.835938 622.173071,141.125 L622.173071,141.125 L621.636938,141.125 C621.577368,139.457031 621.35398,137.238037 620.966772,134.468018 C620.579565,131.697998 620.147681,128.868408 619.671118,125.979248 C619.194556,123.090088 618.703101,120.364746 618.196753,117.803223 C617.690405,115.241699 617.318091,113.305664 617.07981,111.995117 L617.07981,111.995117 L605.374243,64.1005859 L575.350806,64.1005859 L563.019751,111.995117 L561.590063,119.590332 C559.743384,129.419434 558.700903,136.597656 558.462622,141.125 L558.462622,141.125 L557.926489,141.125 C556.020239,127.185547 554.143774,116.254395 552.297095,108.331543 L552.297095,108.331543 L540.770239,64.1005859 L513.606177,64.1005859 L542.021216,164 L571.32981,164 Z M704.889429,164 L704.889429,107.616699 L756.626245,107.616699 L756.626245,164 L784.237085,164 L784.237085,33.3623047 L756.626245,33.3623047 L756.626245,84.5629883 L704.889429,84.5629883 L704.889429,33.3623047 L677.189233,33.3623047 L677.189233,164 L704.889429,164 Z M830.291333,165.787109 C837.141919,165.787109 843.247876,164.52124 848.609204,161.989502 C853.970532,159.457764 858.110669,155.868652 861.029614,151.222168 L862.459302,151.222168 L866.122876,164 L887.032056,164 L887.032056,64.1005859 L859.778638,64.1005859 L859.778638,111.101562 C859.778638,122.896484 858.080884,131.340576 854.685376,136.433838 C851.289868,141.5271 845.779614,144.07373 838.154614,144.07373 C832.555005,144.07373 828.474438,142.271729 825.912915,138.667725 C823.351392,135.063721 822.07063,129.657715 822.07063,122.449707 L822.07063,64.1005859 L794.817212,64.1005859 L794.817212,129.240723 C794.817212,141.035645 797.795727,150.075439 803.752759,156.360107 C809.70979,162.644775 818.555981,165.787109 830.291333,165.787109 Z M953.778686,165.787109 C965.633179,165.787109 975.00061,161.259766 981.880981,152.205078 C988.761352,143.150391 992.201538,130.372559 992.201538,113.871582 C992.201538,97.847168 988.8656,85.2331543 982.193725,76.029541 C975.52185,66.8259277 966.288452,62.2241211 954.49353,62.2241211 C941.983765,62.2241211 932.54187,67.168457 926.167847,77.0571289 L925.095581,77.0571289 C925.810425,68.0024414 926.167847,61.4199219 926.167847,57.3095703 L926.167847,24.9628906 L898.914429,24.9628906 L898.914429,164 L919.734253,164 L924.291382,153.009277 L926.167847,153.009277 C932.839722,161.527832 942.043335,165.787109 953.778686,165.787109 Z M942.094116,143.716309 C935.18396,143.716309 930.135376,141.393066 926.948364,136.746582 C923.761352,132.100098 922.167847,124.415527 922.167847,113.692871 L922.167847,110.744141 C922.286987,101.212891 923.895386,94.3771973 926.993042,90.2370605 C930.090698,86.0969238 935.005249,84.0268555 941.736694,84.0268555 C947.515015,84.0268555 952.072143,86.4841309 955.408081,91.3986816 C958.744018,96.3132324 960.411987,103.685059 960.411987,113.51416 C960.411987,123.343262 958.758911,130.834229 955.452759,135.987061 C952.146606,141.139893 947.693725,143.716309 942.094116,143.716309 Z" id="GlowHub-Copy-3" fill-rule="nonzero"></path>
            </g>
        </g>
    </g>
</svg>