<?xml version="1.0" standalone="no"?>
<!DOCTYPE svg PUBLIC "-//W3C//DTD SVG 20010904//EN"
 "http://www.w3.org/TR/2001/REC-SVG-20010904/DTD/svg10.dtd">
<svg version="1.0" xmlns="http://www.w3.org/2000/svg"
 width="780.000000pt" height="780.000000pt" viewBox="0 0 780.000000 780.000000"
 preserveAspectRatio="xMidYMid meet">
<metadata>
Created by potrace 1.14, written by Peter Selinger 2001-2017
</metadata>
<g transform="translate(0.000000,780.000000) scale(0.100000,-0.100000)"
fill="#000000" stroke="none">
<path d="M0 3900 l0 -3900 3900 0 3900 0 0 3900 0 3900 -3900 0 -3900 0 0
-3900z m6130 2779 c181 -29 325 -104 460 -239 135 -135 210 -279 239 -460 15
-91 15 -4099 0 -4190 -29 -181 -104 -325 -239 -460 -135 -135 -279 -210 -460
-239 -91 -15 -4339 -15 -4430 0 -181 29 -325 104 -460 239 -135 135 -210 279
-239 460 -15 91 -15 4099 0 4190 29 181 104 325 239 460 132 132 280 210 452
239 79 13 4357 13 4438 0z"/>
<path d="M2382 5681 c-96 -33 -180 -120 -207 -215 -13 -46 -15 -131 -13 -597
3 -533 3 -545 25 -591 30 -66 96 -133 162 -165 l56 -28 897 -3 898 -2 2 -883
3 -882 28 -56 c32 -66 99 -132 165 -162 46 -22 54 -22 627 -22 l580 0 56 28
c66 32 132 99 162 165 l22 47 0 1570 0 1570 -22 47 c-30 66 -96 133 -162 165
l-56 28 -1585 2 c-1515 2 -1587 2 -1638 -16z"/>
</g>
</svg>
